<?xml version="1.0" encoding="iso-8859-1"?>
<!-- Uploaded to: SVG Repo, www.svgrepo.com, Generator: SVG Repo Mixer Tools -->
<svg height="40px" width="40px" version="1.1" id="Capa_1" xmlns="http://www.w3.org/2000/svg" xmlns:xlink="http://www.w3.org/1999/xlink" 
	 viewBox="0 0 16.936 16.936" xml:space="preserve">
<g>
	<path style="fill:#2b2d30;" d="M12.883,5.454l2.419-3.701c0,0,0.804-1.059,0.32-1.59c-0.483-0.531-1.542,0.404-1.542,0.404
		l-3.3,3.459l-7.906-0.46L1.446,5.107L8.27,7.316l-3.318,5.168c-0.089,0.114-0.171,0.226-0.241,0.336l-2.536-0.698l-1.016,1.286
		l2.728,0.881l0.121,0.096l0.4,0.314l0.349,0.276l1.335,1.961l0.941-1.192l-1.535-2.316c0.059-0.05,0.114-0.107,0.164-0.17
		l4.559-4.54l0.076,0.06l4.166,6.301l1.02-1.563l-2.577-8.043L12.883,5.454z"/>
</g>
</svg>